<?xml version="1.0" encoding="utf-8"?>
<!-- Generator: Adobe Illustrator 21.0.0, SVG Export Plug-In . SVG Version: 6.00 Build 0)  -->
<svg version="1.1" id="Layer_1" xmlns="http://www.w3.org/2000/svg" xmlns:xlink="http://www.w3.org/1999/xlink" x="0px" y="0px"
	 viewBox="0 0 160 160" style="enable-background:new 0 0 160 160;" xml:space="preserve">
<style type="text/css">
	.st0{fill:#FFFFFF;}
</style>
<g>
	<path class="st0" d="M80,4.8c-20.1,0-39,7.8-53.2,22C12.6,41,4.8,59.9,4.8,80c0,20.1,7.8,39,22,53.2c14.2,14.2,33.1,22,53.2,22
		s39-7.8,53.2-22c14.2-14.2,22-33.1,22-53.2c0-20.1-7.8-39-22-53.2C119,12.6,100.1,4.8,80,4.8L80,4.8z M80,160
		c-21.4,0-41.5-8.3-56.6-23.4C8.3,121.5,0,101.4,0,80s8.3-41.5,23.4-56.6C38.5,8.3,58.6,0,80,0c21.4,0,41.5,8.3,56.6,23.4
		C151.7,38.6,160,58.6,160,80s-8.3,41.5-23.4,56.6C121.5,151.7,101.4,160,80,160L80,160z"/>
	<path class="st0" d="M80.2,111.6c-15.2,0-27.5-12.3-27.5-27.5c0-15.2,12.3-27.5,27.5-27.5s27.5,12.3,27.5,27.5
		C107.7,99.3,95.4,111.6,80.2,111.6z M107.8,62.1l5.6-5.6c-1.7-2-3.5-3.9-5.6-5.6l-5.6,5.6c-6-4.8-13.7-7.7-22-7.7
		c-19.5,0-35.3,15.8-35.3,35.3c0,19.5,15.8,35.3,35.3,35.3c19.5,0,35.3-15.8,35.3-35.3C115.6,75.8,112.7,68.2,107.8,62.1z
		 M76.3,88.1h7.9V64.5h-7.9V88.1z M92,37H68.4v7.9H92V37z"/>
</g>
</svg>
