<?xml version="1.0" encoding="utf-8"?>
<!-- Generator: Adobe Illustrator 21.0.0, SVG Export Plug-In . SVG Version: 6.00 Build 0)  -->
<svg version="1.1" id="Layer_1" xmlns="http://www.w3.org/2000/svg" xmlns:xlink="http://www.w3.org/1999/xlink" x="0px" y="0px"
	 viewBox="0 0 160 160" style="enable-background:new 0 0 160 160;" xml:space="preserve">
<style type="text/css">
	.st0{fill:#FFFFFF;}
</style>
<g>
	<path class="st0" d="M80,4.8c-20.1,0-39,7.8-53.2,22C12.6,41,4.8,59.9,4.8,80c0,20.1,7.8,39,22,53.2c14.2,14.2,33.1,22,53.2,22
		s39-7.8,53.2-22c14.2-14.2,22-33.1,22-53.2c0-20.1-7.8-39-22-53.2C119,12.6,100.1,4.8,80,4.8L80,4.8z M80,160
		c-21.4,0-41.5-8.3-56.6-23.4C8.3,121.5,0,101.4,0,80s8.3-41.5,23.4-56.6C38.5,8.3,58.6,0,80,0s41.5,8.3,56.6,23.4
		C151.7,38.6,160,58.6,160,80s-8.3,41.5-23.4,56.6C121.5,151.7,101.4,160,80,160L80,160z"/>
	<path class="st0" d="M119.3,83.9c-0.4-1.7-16-11.9-21.7-8.1c0.3,0.7,0.3,1.9,0.3,3.6c-2.3-1-4.3-2.5-5.3-4.8
		c-3.9-9.7-10.5-11.1-12.9-13.5c-2.4-2.4-7.5-7.1-9.5-9.5c-2-2.5-0.9-8.5-0.9-10.3c0-1.8-3.2-3.7-6.2,1.4c-3,5.1-2.5,11.7-2.1,13
		c0.4,1.3,1.2,2.6,3.5,5.1c2.2,2.5,2.7,4.6,2.7,4.6s-9.2,1.8-16.8,1.5c-2.7-0.1-5.4,3.1-6.4,4.1c-1,1-1.4,2.7-0.7,4.6
		c0.7,1.9,3.2,2.8,3.2,2.8s-0.3,0-2.3,1.5c-2,1.5-1.3,5.4-1,6.3c0.3,0.9,2.4,2,4.3,2.6c-2,1.3-1.4,5.6-1,6c0.4,0.4,2.4,2.4,4.2,3.1
		c-1,1.3,0,4,0.2,4.6c0.2,0.6,2,1.6,4.2,2.4c2.1,0.7,23.1,1,29.1-0.2c4.2-0.8,8.6-0.7,10.5,0.2c-0.4,3.3-0.7,5.9-0.6,6.9
		c0.6,4,11.6,4.6,14,4.8C110.5,116.9,119.8,85.5,119.3,83.9z"/>
</g>
</svg>
