<?xml version="1.0" encoding="utf-8"?>
<!-- Generator: Adobe Illustrator 21.0.0, SVG Export Plug-In . SVG Version: 6.00 Build 0)  -->
<svg version="1.1" id="Layer_1" xmlns="http://www.w3.org/2000/svg" xmlns:xlink="http://www.w3.org/1999/xlink" x="0px" y="0px"
	 viewBox="0 0 1920 1024" style="enable-background:new 0 0 1920 1024;" xml:space="preserve">
<style type="text/css">
	.st0{fill:none;stroke:#5786AC;stroke-width:4;stroke-miterlimit:10;}
	.st1{fill:none;stroke:#5D8BAF;stroke-width:3.8654;stroke-miterlimit:10;}
	.st2{fill:none;stroke:#648FB2;stroke-width:3.7308;stroke-miterlimit:10;}
	.st3{fill:none;stroke:#6A94B6;stroke-width:3.5962;stroke-miterlimit:10;}
	.st4{fill:none;stroke:#7199B9;stroke-width:3.4615;stroke-miterlimit:10;}
	.st5{fill:none;stroke:#779DBC;stroke-width:3.3269;stroke-miterlimit:10;}
	.st6{fill:none;stroke:#7EA2BF;stroke-width:3.1923;stroke-miterlimit:10;}
	.st7{fill:none;stroke:#84A7C2;stroke-width:3.0577;stroke-miterlimit:10;}
	.st8{fill:none;stroke:#8BABC6;stroke-width:2.9231;stroke-miterlimit:10;}
	.st9{fill:none;stroke:#91B0C9;stroke-width:2.7885;stroke-miterlimit:10;}
	.st10{fill:none;stroke:#98B5CC;stroke-width:2.6538;stroke-miterlimit:10;}
	.st11{fill:none;stroke:#9EB9CF;stroke-width:2.5192;stroke-miterlimit:10;}
	.st12{fill:none;stroke:#A5BED2;stroke-width:2.3846;stroke-miterlimit:10;}
	.st13{fill:none;stroke:#ABC2D5;stroke-width:2.25;stroke-miterlimit:10;}
	.st14{fill:none;stroke:#B1C7D9;stroke-width:2.1154;stroke-miterlimit:10;}
	.st15{fill:none;stroke:#B8CCDC;stroke-width:1.9808;stroke-miterlimit:10;}
	.st16{fill:none;stroke:#BED0DF;stroke-width:1.8462;stroke-miterlimit:10;}
	.st17{fill:none;stroke:#C5D5E2;stroke-width:1.7115;stroke-miterlimit:10;}
	.st18{fill:none;stroke:#CBDAE5;stroke-width:1.5769;stroke-miterlimit:10;}
	.st19{fill:none;stroke:#D2DEE9;stroke-width:1.4423;stroke-miterlimit:10;}
	.st20{fill:none;stroke:#D8E3EC;stroke-width:1.3077;stroke-miterlimit:10;}
	.st21{fill:none;stroke:#DFE8EF;stroke-width:1.1731;stroke-miterlimit:10;}
	.st22{fill:none;stroke:#E5ECF2;stroke-width:1.0385;stroke-miterlimit:10;}
	.st23{fill:none;stroke:#ECF1F5;stroke-width:0.9038;stroke-miterlimit:10;}
	.st24{fill:none;stroke:#F2F6F9;stroke-width:0.7692;stroke-miterlimit:10;}
	.st25{fill:none;stroke:#F9FAFC;stroke-width:0.6346;stroke-miterlimit:10;}
	.st26{fill:none;stroke:#FFFFFF;stroke-width:0.5;stroke-miterlimit:10;}
	.st27{fill:none;stroke:#F6F6F3;stroke-width:4;stroke-miterlimit:10;}
	.st28{fill:none;stroke:#F2F3F1;stroke-width:3.9146;stroke-miterlimit:10;}
	.st29{fill:none;stroke:#EEF1F0;stroke-width:3.8293;stroke-miterlimit:10;}
	.st30{fill:none;stroke:#EAEEEE;stroke-width:3.7439;stroke-miterlimit:10;}
	.st31{fill:none;stroke:#E6EBEC;stroke-width:3.6585;stroke-miterlimit:10;}
	.st32{fill:none;stroke:#E3E8EA;stroke-width:3.5732;stroke-miterlimit:10;}
	.st33{fill:none;stroke:#DFE6E9;stroke-width:3.4878;stroke-miterlimit:10;}
	.st34{fill:none;stroke:#DBE3E7;stroke-width:3.4024;stroke-miterlimit:10;}
	.st35{fill:none;stroke:#D7E0E5;stroke-width:3.3171;stroke-miterlimit:10;}
	.st36{fill:none;stroke:#D3DDE3;stroke-width:3.2317;stroke-miterlimit:10;}
	.st37{fill:none;stroke:#CFDBE2;stroke-width:3.1463;stroke-miterlimit:10;}
	.st38{fill:none;stroke:#CBD8E0;stroke-width:3.061;stroke-miterlimit:10;}
	.st39{fill:none;stroke:#C7D5DE;stroke-width:2.9756;stroke-miterlimit:10;}
	.st40{fill:none;stroke:#C4D2DC;stroke-width:2.8902;stroke-miterlimit:10;}
	.st41{fill:none;stroke:#C0D0DB;stroke-width:2.8049;stroke-miterlimit:10;}
	.st42{fill:none;stroke:#BCCDD9;stroke-width:2.7195;stroke-miterlimit:10;}
	.st43{fill:none;stroke:#B8CAD7;stroke-width:2.6341;stroke-miterlimit:10;}
	.st44{fill:none;stroke:#B4C8D6;stroke-width:2.5488;stroke-miterlimit:10;}
	.st45{fill:none;stroke:#B0C5D4;stroke-width:2.4634;stroke-miterlimit:10;}
	.st46{fill:none;stroke:#ACC2D2;stroke-width:2.378;stroke-miterlimit:10;}
	.st47{fill:none;stroke:#A8BFD0;stroke-width:2.2927;stroke-miterlimit:10;}
	.st48{fill:none;stroke:#A5BDCF;stroke-width:2.2073;stroke-miterlimit:10;}
	.st49{fill:none;stroke:#A1BACD;stroke-width:2.122;stroke-miterlimit:10;}
	.st50{fill:none;stroke:#9DB7CB;stroke-width:2.0366;stroke-miterlimit:10;}
	.st51{fill:none;stroke:#99B4C9;stroke-width:1.9512;stroke-miterlimit:10;}
	.st52{fill:none;stroke:#95B2C8;stroke-width:1.8659;stroke-miterlimit:10;}
	.st53{fill:none;stroke:#91AFC6;stroke-width:1.7805;stroke-miterlimit:10;}
	.st54{fill:none;stroke:#8DACC4;stroke-width:1.6951;stroke-miterlimit:10;}
	.st55{fill:none;stroke:#89AAC3;stroke-width:1.6098;stroke-miterlimit:10;}
	.st56{fill:none;stroke:#86A7C1;stroke-width:1.5244;stroke-miterlimit:10;}
	.st57{fill:none;stroke:#82A4BF;stroke-width:1.439;stroke-miterlimit:10;}
	.st58{fill:none;stroke:#7EA1BD;stroke-width:1.3537;stroke-miterlimit:10;}
	.st59{fill:none;stroke:#7A9FBC;stroke-width:1.2683;stroke-miterlimit:10;}
	.st60{fill:none;stroke:#769CBA;stroke-width:1.1829;stroke-miterlimit:10;}
	.st61{fill:none;stroke:#7299B8;stroke-width:1.0976;stroke-miterlimit:10;}
	.st62{fill:none;stroke:#6E96B6;stroke-width:1.0122;stroke-miterlimit:10;}
	.st63{fill:none;stroke:#6A94B5;stroke-width:0.9268;stroke-miterlimit:10;}
	.st64{fill:none;stroke:#6791B3;stroke-width:0.8415;stroke-miterlimit:10;}
	.st65{fill:none;stroke:#638EB1;stroke-width:0.7561;stroke-miterlimit:10;}
	.st66{fill:none;stroke:#5F8BAF;stroke-width:0.6707;stroke-miterlimit:10;}
	.st67{fill:none;stroke:#5B89AE;stroke-width:0.5854;stroke-miterlimit:10;}
	.st68{fill:none;stroke:#5786AC;stroke-width:0.5;stroke-miterlimit:10;}
</style>
<g>
	<line class="st0" x1="0" y1="2" x2="1920" y2="2"/>
	<path class="st1" d="M0,36.1c0,0,1107.3-20.5,1134.8-20.5c20.4,0,785.1,10.1,785.1,10.1"/>
	<path class="st2" d="M0.1,70.2c0,0,1078.5-41,1133.5-41c40.8,0,786.4,20.2,786.4,20.2"/>
	<path class="st3" d="M0.1,104.3c0,0,1049.7-61.5,1132.2-61.5c61.2,0,787.6,30.3,787.6,30.4"/>
	<path class="st4" d="M0.1,138.4c0,0,1021-82,1131-82c81.5,0,788.9,40.5,788.8,40.5"/>
	<path class="st5" d="M0.1,172.5c0,0,992.2-102.5,1129.7-102.5c101.9,0,790.1,50.6,790,50.6"/>
	<path class="st6" d="M0.2,206.6c0,0,963.4-123,1128.4-123c122.3,0,791.3,60.7,791.3,60.7"/>
	<path class="st7" d="M0.2,240.7c-0.1,0,934.6-143.5,1127.1-143.5c142.7,0,792.6,70.8,792.5,70.8"/>
	<path class="st8" d="M0.2,274.8c-0.1,0,905.8-164,1125.8-164c163.1,0,793.8,80.9,793.7,80.9"/>
	<path class="st9" d="M0.2,308.9c-0.1,0,877.1-184.5,1124.6-184.5c183.5,0,795,91,795,91.1"/>
	<path class="st10" d="M0.3,343c-0.1,0,848.3-205,1123.3-205c203.8,0,796.3,101.2,796.2,101.2"/>
	<path class="st11" d="M0.3,377.1c-0.1,0,819.5-225.5,1122-225.5c224.2,0,797.5,111.3,797.4,111.3"/>
	<path class="st12" d="M0.3,411.2c-0.1,0,790.7-246,1120.7-246c244.6,0,798.7,121.4,798.6,121.4"/>
	<path class="st13" d="M0.3,445.2c-0.1,0,761.9-266.5,1119.4-266.5c265,0,800,131.5,799.9,131.5"/>
	<path class="st14" d="M0.4,479.3c-0.1,0,733.2-287,1118.2-287c285.4,0,801.2,141.6,801.1,141.6"/>
	<path class="st15" d="M0.4,513.4c-0.1,0,704.4-307.5,1116.9-307.5c305.8,0,802.4,151.7,802.3,151.8"/>
	<path class="st16" d="M0.4,547.5c-0.1,0,675.6-328,1115.6-328c326.2,0,803.7,161.8,803.5,161.9"/>
	<path class="st17" d="M0.5,581.6c-0.1,0,646.8-348.5,1114.3-348.5c346.5,0,804.9,172,804.8,172"/>
	<path class="st18" d="M0.5,615.7c-0.1,0,618-369,1113-369c366.9,0,806.1,182.1,806,182.1"/>
	<path class="st19" d="M0.5,649.8c-0.1,0,589.3-389.5,1111.8-389.5c387.3,0,807.4,192.2,807.2,192.2"/>
	<path class="st20" d="M0.5,683.9c-0.2,0,560.5-410,1110.5-410c407.7,0,808.6,202.3,808.4,202.3"/>
	<path class="st21" d="M0.6,718c-0.2,0,531.7-430.5,1109.2-430.5c428.1,0,809.8,212.4,809.7,212.5"/>
	<path class="st22" d="M0.6,752.1c-0.2,0,502.9-451,1107.9-451c448.5,0,811.1,222.5,810.9,222.6"/>
	<path class="st23" d="M0.6,786.2c-0.2,0,474.1-471.5,1106.6-471.5c468.8,0,812.3,232.7,812.1,232.7"/>
	<path class="st24" d="M0.6,820.3c-0.2,0,445.4-492,1105.4-492c489.2,0,813.5,242.8,813.3,242.8"/>
	<path class="st25" d="M0.7,854.4c-0.2,0,416.6-512.5,1104.1-512.5c509.6,0,814.8,252.9,814.6,252.9"/>
	<path class="st26" d="M0.7,888.5c-0.2,0,387.8-533,1102.8-533c530,0,816,263,815.8,263.1"/>
</g>
</svg>
