<?xml version="1.0" encoding="UTF-8"?>
<svg width="1920px" height="600px" viewBox="0 0 1920 600" version="1.1" xmlns="http://www.w3.org/2000/svg" xmlns:xlink="http://www.w3.org/1999/xlink">
    <!-- Generator: Sketch 57.1 (83088) - https://sketch.com -->
    <title>lines-red</title>
    <desc>Created with Sketch.</desc>
    <g id="lines-red" stroke="none" stroke-width="1" fill="none" fill-rule="evenodd">
        <g id="Group-65" transform="translate(961.000000, 283.000000) rotate(180.000000) translate(-961.000000, -283.000000) translate(-4.000000, -34.000000)">
            <path d="M0,633.713396 C520.333943,633.713396 1209.24444,436.504673 1930,436.504673" id="Stroke-1" stroke="#FAFAFA" stroke-width="0.601246106"></path>
            <path d="M0,613.271028 C503.550377,613.271028 1232.49581,420.872274 1930,420.872274" id="Stroke-3" stroke="#FAF7F6" stroke-width="0.6794081"></path>
            <path d="M0,592.82866 C486.76681,592.82866 1255.74717,407.64486 1930,407.64486" id="Stroke-5" stroke="#FAF3F0" stroke-width="0.756367601"></path>
            <path d="M0,572.386293 C469.979907,572.386293 1278.9952,393.214953 1930,393.214953" id="Stroke-7" stroke="#FAEFEB" stroke-width="0.834529595"></path>
            <path d="M0,551.943925 C453.193003,551.943925 1302.24656,379.987539 1930,379.987539" id="Stroke-9" stroke="#F9EBE6" stroke-width="0.911489097"></path>
            <path d="M0,531.501558 C436.409437,531.501558 1325.49459,364.35514 1930,364.35514" id="Stroke-11" stroke="#F9E6E0" stroke-width="0.98965109"></path>
            <path d="M0,509.856698 C419.62587,509.856698 1348.74595,351.127726 1930,351.127726" id="Stroke-13" stroke="#F9E3DB" stroke-width="1.06661059"></path>
            <path d="M0,490.616822 C402.838966,490.616822 1371.99731,336.697819 1930,336.697819" id="Stroke-15" stroke="#F8DED6" stroke-width="1.14477259"></path>
            <path d="M0,470.174455 C386.0554,470.174455 1395.24534,323.470405 1930,323.470405" id="Stroke-17" stroke="#F8DAD1" stroke-width="1.22173209"></path>
            <path d="M0,448.529595 C369.268496,448.529595 1418.4967,307.838006 1930,307.838006" id="Stroke-19" stroke="#F8D6CC" stroke-width="1.29989408"></path>
            <path d="M0,428.087227 C352.48493,428.087227 1441.74473,294.610592 1930,294.610592" id="Stroke-21" stroke="#F7D2C6" stroke-width="1.37685358"></path>
            <path d="M0,407.64486 C335.698026,407.64486 1464.99609,278.978193 1930,278.978193" id="Stroke-23" stroke="#F7CDC1" stroke-width="1.45501558"></path>
            <path d="M0,387.202492 C318.91446,387.202492 1488.24746,266.953271 1930,266.953271" id="Stroke-25" stroke="#F6C9BC" stroke-width="1.53197508"></path>
            <path d="M0,366.760125 C302.130894,366.760125 1511.49548,251.320872 1930,251.320872" id="Stroke-27" stroke="#F6C4B6" stroke-width="1.61013707"></path>
            <path d="M0,346.317757 C285.34399,346.317757 1534.74685,238.093458 1930,238.093458" id="Stroke-29" stroke="#F5C0B1" stroke-width="1.68709657"></path>
            <path d="M0,328.280374 C268.560423,328.280374 1557.99821,226.068536 1930,226.068536" id="Stroke-31" stroke="#F5BBAB" stroke-width="1.76525857"></path>
            <path d="M0,305.433022 C251.77352,305.433022 1581.24623,210.436137 1930,210.436137" id="Stroke-33" stroke="#F4B6A6" stroke-width="1.84221807"></path>
            <path d="M0,287.395639 C234.989953,287.395639 1604.4976,197.208723 1930,197.208723" id="Stroke-35" stroke="#F4B2A1" stroke-width="1.92038006"></path>
            <path d="M0,264.548287 C218.20305,264.548287 1627.74896,182.778816 1930,182.778816" id="Stroke-37" stroke="#F3AD9C" stroke-width="1.99733956"></path>
            <path d="M0,246.510903 C201.419483,246.510903 1650.99699,169.551402 1930,169.551402" id="Stroke-39" stroke="#F3A896" stroke-width="2.07550156"></path>
            <path d="M0,226.068536 C184.635917,226.068536 1674.24835,156.323988 1930,156.323988" id="Stroke-41" stroke="#F2A391" stroke-width="2.15246106"></path>
            <path d="M0,205.626168 C167.849013,205.626168 1697.49971,141.894081 1930,141.894081" id="Stroke-43" stroke="#F29F8C" stroke-width="2.23062305"></path>
            <path d="M0,185.183801 C151.065447,185.183801 1720.74774,128.666667 1930,128.666667" id="Stroke-45" stroke="#F19986" stroke-width="2.30758255"></path>
            <path d="M0,164.741433 C134.278543,164.741433 1743.9991,113.034268 1930,113.034268" id="Stroke-47" stroke="#F19581" stroke-width="2.38574455"></path>
            <path d="M0,143.096573 C117.494977,143.096573 1767.25047,99.8068536 1930,99.8068536" id="Stroke-49" stroke="#F08F7C" stroke-width="2.46270405"></path>
            <path d="M0,122.654206 C100.71141,122.654206 1790.49849,84.1744548 1930,84.1744548" id="Stroke-51" stroke="#EF8A77" stroke-width="2.54086604"></path>
            <path d="M0,103.41433 C83.9245066,103.41433 1813.74986,72.1495327 1930,72.1495327" id="Stroke-53" stroke="#EF8572" stroke-width="2.61782555"></path>
            <path d="M0,81.7694704 C67.1409402,81.7694704 1837.00122,56.517134 1930,56.517134" id="Stroke-55" stroke="#EE806D" stroke-width="2.69598754"></path>
            <path d="M0,61.3271028 C50.3540365,61.3271028 1860.24925,43.2897196 1930,43.2897196" id="Stroke-57" stroke="#EE7B69" stroke-width="2.77294704"></path>
            <path d="M0,40.8847352 C33.5704701,40.8847352 1883.50061,27.6573209 1930,27.6573209" id="Stroke-59" stroke="#ED7564" stroke-width="2.85110903"></path>
            <path d="M0,20.4423676 C16.7835664,20.4423676 1906.74864,15.6323988 1930,15.6323988" id="Stroke-61" stroke="#EC705F" stroke-width="2.92806854"></path>
            <path d="M0,1.20249221 L1930,1.20249221" id="Stroke-63" stroke="#EC6A5A" stroke-width="3.00623053"></path>
        </g>
    </g>
</svg>